<?xml version="1.0" encoding="utf-8"?>
<!-- Generator: Adobe Illustrator 17.0.2, SVG Export Plug-In . SVG Version: 6.00 Build 0)  -->
<!DOCTYPE svg PUBLIC "-//W3C//DTD SVG 1.1//EN" "http://www.w3.org/Graphics/SVG/1.1/DTD/svg11.dtd">
<svg version="1.1" id="Layer_1" xmlns="http://www.w3.org/2000/svg" xmlns:xlink="http://www.w3.org/1999/xlink" x="0px" y="0px"
	 width="214px" height="214px" viewBox="0 0 214 214" enable-background="new 0 0 214 214" xml:space="preserve">
<circle opacity="0.0547" fill="#DDDDDD" enable-background="new    " cx="0" cy="0" r="35.833"/>
<circle opacity="0.0547" fill="#DDDDDD" enable-background="new    " cx="215" cy="0" r="35.833"/>
<circle opacity="0.0547" fill="#DDDDDD" enable-background="new    " cx="0" cy="215" r="35.833"/>
<circle opacity="0.0547" fill="#DDDDDD" enable-background="new    " cx="215" cy="215" r="35.833"/>
<circle opacity="0.0807" fill="#222222" enable-background="new    " cx="35.833" cy="0" r="35.833"/>
<circle opacity="0.0807" fill="#222222" enable-background="new    " cx="35.833" cy="215" r="35.833"/>
<circle opacity="0.02" fill="#DDDDDD" enable-background="new    " cx="71.667" cy="0" r="35.833"/>
<circle opacity="0.02" fill="#DDDDDD" enable-background="new    " cx="71.667" cy="215" r="35.833"/>
<circle opacity="0.0287" fill="#222222" enable-background="new    " cx="107.5" cy="0" r="35.833"/>
<circle opacity="0.0287" fill="#222222" enable-background="new    " cx="107.5" cy="215" r="35.833"/>
<circle opacity="0.0287" fill="#222222" enable-background="new    " cx="143.333" cy="0" r="35.833"/>
<circle opacity="0.0287" fill="#222222" enable-background="new    " cx="143.333" cy="215" r="35.833"/>
<circle opacity="0.072" fill="#DDDDDD" enable-background="new    " cx="179.167" cy="0" r="35.833"/>
<circle opacity="0.072" fill="#DDDDDD" enable-background="new    " cx="179.167" cy="215" r="35.833"/>
<circle opacity="0.098" fill="#222222" enable-background="new    " cx="0" cy="35.833" r="35.833"/>
<circle opacity="0.098" fill="#222222" enable-background="new    " cx="215" cy="35.833" r="35.833"/>
<circle opacity="0.02" fill="#DDDDDD" enable-background="new    " cx="35.833" cy="35.833" r="35.833"/>
<circle opacity="0.1067" fill="#DDDDDD" enable-background="new    " cx="71.667" cy="35.833" r="35.833"/>
<circle opacity="0.1413" fill="#DDDDDD" enable-background="new    " cx="107.5" cy="35.833" r="35.833"/>
<circle opacity="0.0893" fill="#DDDDDD" enable-background="new    " cx="143.333" cy="35.833" r="35.833"/>
<circle opacity="0.0807" fill="#222222" enable-background="new    " cx="179.167" cy="35.833" r="35.833"/>
<circle opacity="0.1153" fill="#222222" enable-background="new    " cx="0" cy="71.667" r="35.833"/>
<circle opacity="0.1153" fill="#222222" enable-background="new    " cx="215" cy="71.667" r="35.833"/>
<circle opacity="0.1327" fill="#222222" enable-background="new    " cx="35.833" cy="71.667" r="35.833"/>
<circle opacity="0.072" fill="#DDDDDD" enable-background="new    " cx="71.667" cy="71.667" r="35.833"/>
<circle opacity="0.0287" fill="#222222" enable-background="new    " cx="107.5" cy="71.667" r="35.833"/>
<circle opacity="0.02" fill="#DDDDDD" enable-background="new    " cx="143.333" cy="71.667" r="35.833"/>
<circle opacity="0.0373" fill="#DDDDDD" enable-background="new    " cx="179.167" cy="71.667" r="35.833"/>
<circle opacity="0.124" fill="#DDDDDD" enable-background="new    " cx="0" cy="107.5" r="35.833"/>
<circle opacity="0.124" fill="#DDDDDD" enable-background="new    " cx="215" cy="107.5" r="35.833"/>
<circle opacity="0.02" fill="#DDDDDD" enable-background="new    " cx="35.833" cy="107.5" r="35.833"/>
<circle opacity="0.0287" fill="#222222" enable-background="new    " cx="71.667" cy="107.5" r="35.833"/>
<circle opacity="0.072" fill="#DDDDDD" enable-background="new    " cx="107.5" cy="107.5" r="35.833"/>
<circle opacity="0.15" fill="#222222" enable-background="new    " cx="143.333" cy="107.5" r="35.833"/>
<circle opacity="0.0287" fill="#222222" enable-background="new    " cx="179.167" cy="107.5" r="35.833"/>
<circle opacity="0.0547" fill="#DDDDDD" enable-background="new    " cx="0" cy="143.333" r="35.833"/>
<circle opacity="0.0547" fill="#DDDDDD" enable-background="new    " cx="215" cy="143.333" r="35.833"/>
<circle opacity="0.0547" fill="#DDDDDD" enable-background="new    " cx="35.833" cy="143.333" r="35.833"/>
<circle opacity="0.0893" fill="#DDDDDD" enable-background="new    " cx="71.667" cy="143.333" r="35.833"/>
<circle opacity="0.0633" fill="#222222" enable-background="new    " cx="107.5" cy="143.333" r="35.833"/>
<circle opacity="0.0807" fill="#222222" enable-background="new    " cx="143.333" cy="143.333" r="35.833"/>
<circle opacity="0.1153" fill="#222222" enable-background="new    " cx="179.167" cy="143.333" r="35.833"/>
<circle opacity="0.0807" fill="#222222" enable-background="new    " cx="0" cy="179.167" r="35.833"/>
<circle opacity="0.0807" fill="#222222" enable-background="new    " cx="215" cy="179.167" r="35.833"/>
<circle opacity="0.1413" fill="#DDDDDD" enable-background="new    " cx="35.833" cy="179.167" r="35.833"/>
<circle opacity="0.0547" fill="#DDDDDD" enable-background="new    " cx="71.667" cy="179.167" r="35.833"/>
<circle opacity="0.1413" fill="#DDDDDD" enable-background="new    " cx="107.5" cy="179.167" r="35.833"/>
<circle opacity="0.046" fill="#222222" enable-background="new    " cx="143.333" cy="179.167" r="35.833"/>
<circle opacity="0.1153" fill="#222222" enable-background="new    " cx="179.167" cy="179.167" r="35.833"/>
</svg>
