<?xml version="1.0" encoding="utf-8"?>
<!-- Generator: Adobe Illustrator 17.0.2, SVG Export Plug-In . SVG Version: 6.00 Build 0)  -->
<!DOCTYPE svg PUBLIC "-//W3C//DTD SVG 1.1//EN" "http://www.w3.org/Graphics/SVG/1.1/DTD/svg11.dtd">
<svg version="1.1" id="Layer_1" xmlns="http://www.w3.org/2000/svg" xmlns:xlink="http://www.w3.org/1999/xlink" x="0px" y="0px"
	 width="225.107px" height="177.872px" viewBox="0 0 225.107 177.872" enable-background="new 0 0 225.107 177.872"
	 xml:space="preserve">
<g>
	<g>
		<path fill="#FFFFFF" d="M218.332,0H6.78C3.037,0,0,3.037,0,6.78v127.928h225.107V6.78C225.109,3.037,222.075,0,218.332,0z
			 M215.748,126.462H8.991V8.658h206.757V126.462z"/>
		<path fill="#EFEFEF" d="M143.313,171.601c-4.126-3.034-4.562-7.591-4.562-7.591l-1.547-9.885H87.91l-1.552,9.885
			c0,0-0.431,4.557-4.555,7.591c-4.122,3.037-7.375,5.64-4.122,6.075c3.134,0.421,32.698,0.036,34.878,0.002
			c2.182,0.033,31.741,0.419,34.875-0.002C150.685,177.241,147.432,174.64,143.313,171.601z"/>
		<path fill="#D6D6D6" d="M0,134.282v13.008c0,3.746,3.037,6.782,6.78,6.782h211.55c3.743,0,6.778-3.034,6.778-6.782v-13.008H0z
			 M112.554,148.06c-1.897,0-3.435-1.538-3.435-3.435s1.538-3.435,3.435-3.435c1.897,0,3.435,1.538,3.435,3.435
			S114.451,148.06,112.554,148.06z"/>
	</g>
	<g>
		<rect x="25.693" y="30.136" fill="#FFFFFF" width="1.983" height="84.084"/>
		<rect x="25.693" y="112.237" fill="#FFFFFF" width="173.721" height="1.983"/>
		<rect x="32.833" y="72.178" fill="#FFFFFF" width="10.709" height="40.059"/>
		<rect x="47.904" y="49.57" fill="#FFFFFF" width="10.709" height="62.667"/>
		<rect x="62.976" y="95.182" fill="#FFFFFF" width="10.709" height="17.055"/>
		<rect x="78.048" y="80.507" fill="#FFFFFF" width="10.709" height="31.73"/>
		<rect x="93.12" y="62.659" fill="#FFFFFF" width="10.709" height="49.578"/>
		<rect x="108.191" y="103.114" fill="#FFFFFF" width="10.709" height="9.123"/>
		<rect x="123.263" y="79.912" fill="#FFFFFF" width="10.709" height="32.325"/>
		<rect x="138.335" y="50.363" fill="#FFFFFF" width="10.709" height="61.874"/>
		<rect x="153.406" y="46" fill="#FFFFFF" width="10.709" height="66.237"/>
		<rect x="168.478" y="86.059" fill="#FFFFFF" width="10.709" height="26.178"/>
		<rect x="183.55" y="36.481" fill="#FFFFFF" width="10.709" height="75.756"/>
	</g>
</g>
</svg>
